<svg width="107" height="157" viewBox="0 0 107 157" fill="none" xmlns="http://www.w3.org/2000/svg">
<path d="M55.98 8.84806C55.2745 8.292 54.4023 7.98962 53.504 7.98962C52.6057 7.98962 51.7335 8.292 51.028 8.84806L37.796 19.2881C34.576 21.8281 34.968 26.2601 37.564 28.5441L31.708 33.3681C27.856 36.5481 29.416 42.4561 33.748 43.7481L27.404 49.6921C23.46 53.3841 26.076 60.0001 31.48 60.0001H45.5V67.0001C45.5 69.7601 47.74 72.0001 50.5 72.0001H56.5C59.26 72.0001 61.5 69.7601 61.5 67.0001V60.0001H75.516C80.92 60.0001 83.536 53.3801 79.588 49.6881L73.24 43.7521C77.584 42.4681 79.152 36.5521 75.292 33.3721L69.444 28.5481C72.04 26.2641 72.432 21.8281 69.216 19.2881L55.98 8.84806ZM57.5 60.0001V67.0001C57.5 67.2653 57.3947 67.5196 57.2071 67.7072C57.0196 67.8947 56.7652 68.0001 56.5 68.0001H50.5C50.2348 68.0001 49.9804 67.8947 49.7929 67.7072C49.6054 67.5196 49.5 67.2653 49.5 67.0001V60.0001H57.5ZM53.504 11.9881L66.736 22.4281C67.0585 22.6812 67.2954 23.0273 67.4147 23.4195C67.5339 23.8118 67.5298 24.2312 67.4027 24.621C67.2757 25.0108 67.032 25.3521 66.7045 25.5988C66.3771 25.8455 65.9817 25.9855 65.572 26.0001C65.166 26.0128 64.7734 26.149 64.4466 26.3903C64.1199 26.6317 63.8743 26.9669 63.7427 27.3512C63.6111 27.7356 63.5997 28.1509 63.71 28.5419C63.8203 28.9329 64.047 29.2811 64.36 29.5401L72.748 36.4601C73.0646 36.7224 73.2926 37.0759 73.4011 37.4725C73.5095 37.8691 73.4931 38.2894 73.3541 38.6764C73.2151 39.0633 72.9602 39.398 72.6241 39.6348C72.2881 39.8717 71.8872 39.9992 71.476 40.0001H68.444C68.0427 39.9998 67.6507 40.1203 67.3188 40.3459C66.9869 40.5714 66.7305 40.8915 66.583 41.2647C66.4355 41.6379 66.4036 42.0468 66.4915 42.4383C66.5794 42.8298 66.7831 43.1858 67.076 43.4601L76.852 52.6081C77.1392 52.8765 77.3391 53.225 77.4256 53.6085C77.5122 53.992 77.4814 54.3926 77.3374 54.7583C77.1933 55.1241 76.9426 55.4381 76.6178 55.6595C76.293 55.881 75.9091 55.9996 75.516 56.0001H31.48C31.0866 56.0004 30.7021 55.8823 30.3767 55.6612C30.0513 55.4401 29.7999 55.1261 29.6554 54.7602C29.5108 54.3943 29.4797 53.9933 29.5662 53.6095C29.6526 53.2256 29.8526 52.8767 30.14 52.6081L39.9 43.4601C40.1924 43.1863 40.3959 42.831 40.4841 42.4402C40.5723 42.0495 40.541 41.6412 40.3945 41.2684C40.248 40.8956 39.9928 40.5754 39.6622 40.3492C39.3315 40.1231 38.9406 40.0014 38.54 40.0001H35.524C35.1119 40.0002 34.7098 39.8731 34.3728 39.636C34.0357 39.399 33.78 39.0636 33.6408 38.6757C33.5016 38.2878 33.4856 37.8664 33.595 37.4691C33.7044 37.0718 33.9339 36.718 34.252 36.4561L42.644 29.5401C42.9568 29.2813 43.1835 28.9335 43.2939 28.5429C43.4043 28.1522 43.3932 27.7372 43.2621 27.353C43.131 26.9688 42.8861 26.6336 42.5599 26.392C42.2337 26.1503 41.8417 26.0136 41.436 26.0001C41.0263 25.9855 40.631 25.8455 40.3035 25.5988C39.976 25.3521 39.7323 25.0108 39.6053 24.621C39.4783 24.2312 39.4741 23.8118 39.5934 23.4195C39.7126 23.0273 39.9495 22.6812 40.272 22.4281L53.504 11.9881Z" fill="#0E204E"/>
<path d="M3.024 138.786V142.98H7.596V144.33H3.024V148.65H8.136V150H1.386V137.436H8.136V138.786H3.024ZM10.0025 145.05C10.0025 144.03 10.2065 143.142 10.6145 142.386C11.0225 141.618 11.5865 141.024 12.3065 140.604C13.0385 140.184 13.8725 139.974 14.8085 139.974C16.0205 139.974 17.0165 140.268 17.7965 140.856C18.5885 141.444 19.1105 142.26 19.3625 143.304H17.5985C17.4305 142.704 17.1005 142.23 16.6085 141.882C16.1285 141.534 15.5285 141.36 14.8085 141.36C13.8725 141.36 13.1165 141.684 12.5405 142.332C11.9645 142.968 11.6765 143.874 11.6765 145.05C11.6765 146.238 11.9645 147.156 12.5405 147.804C13.1165 148.452 13.8725 148.776 14.8085 148.776C15.5285 148.776 16.1285 148.608 16.6085 148.272C17.0885 147.936 17.4185 147.456 17.5985 146.832H19.3625C19.0985 147.84 18.5705 148.65 17.7785 149.262C16.9865 149.862 15.9965 150.162 14.8085 150.162C13.8725 150.162 13.0385 149.952 12.3065 149.532C11.5865 149.112 11.0225 148.518 10.6145 147.75C10.2065 146.982 10.0025 146.082 10.0025 145.05ZM25.8501 150.162C24.9261 150.162 24.0861 149.952 23.3301 149.532C22.5861 149.112 21.9981 148.518 21.5661 147.75C21.1461 146.97 20.9361 146.07 20.9361 145.05C20.9361 144.042 21.1521 143.154 21.5841 142.386C22.0281 141.606 22.6281 141.012 23.3841 140.604C24.1401 140.184 24.9861 139.974 25.9221 139.974C26.8581 139.974 27.7041 140.184 28.4601 140.604C29.2161 141.012 29.8101 141.6 30.2421 142.368C30.6861 143.136 30.9081 144.03 30.9081 145.05C30.9081 146.07 30.6801 146.97 30.2241 147.75C29.7801 148.518 29.1741 149.112 28.4061 149.532C27.6381 149.952 26.7861 150.162 25.8501 150.162ZM25.8501 148.722C26.4381 148.722 26.9901 148.584 27.5061 148.308C28.0221 148.032 28.4361 147.618 28.7481 147.066C29.0721 146.514 29.2341 145.842 29.2341 145.05C29.2341 144.258 29.0781 143.586 28.7661 143.034C28.4541 142.482 28.0461 142.074 27.5421 141.81C27.0381 141.534 26.4921 141.396 25.9041 141.396C25.3041 141.396 24.7521 141.534 24.2481 141.81C23.7561 142.074 23.3601 142.482 23.0601 143.034C22.7601 143.586 22.6101 144.258 22.6101 145.05C22.6101 145.854 22.7541 146.532 23.0421 147.084C23.3421 147.636 23.7381 148.05 24.2301 148.326C24.7221 148.59 25.2621 148.722 25.8501 148.722ZM44.9526 137.454V138.786H39.4986V143.016H43.9266V144.348H39.4986V150H37.8606V137.454H44.9526ZM48.5689 141.738C48.8569 141.174 49.2649 140.736 49.7929 140.424C50.3329 140.112 50.9869 139.956 51.7549 139.956V141.648H51.3229C49.4869 141.648 48.5689 142.644 48.5689 144.636V150H46.9309V140.136H48.5689V141.738ZM54.4918 138.534C54.1798 138.534 53.9158 138.426 53.6998 138.21C53.4838 137.994 53.3758 137.73 53.3758 137.418C53.3758 137.106 53.4838 136.842 53.6998 136.626C53.9158 136.41 54.1798 136.302 54.4918 136.302C54.7918 136.302 55.0438 136.41 55.2478 136.626C55.4638 136.842 55.5718 137.106 55.5718 137.418C55.5718 137.73 55.4638 137.994 55.2478 138.21C55.0438 138.426 54.7918 138.534 54.4918 138.534ZM55.2838 140.136V150H53.6458V140.136H55.2838ZM67.0755 144.69C67.0755 145.002 67.0575 145.332 67.0215 145.68H59.1375C59.1975 146.652 59.5275 147.414 60.1275 147.966C60.7395 148.506 61.4775 148.776 62.3415 148.776C63.0495 148.776 63.6375 148.614 64.1055 148.29C64.5855 147.954 64.9215 147.51 65.1135 146.958H66.8775C66.6135 147.906 66.0855 148.68 65.2935 149.28C64.5015 149.868 63.5175 150.162 62.3415 150.162C61.4055 150.162 60.5655 149.952 59.8215 149.532C59.0895 149.112 58.5135 148.518 58.0935 147.75C57.6735 146.97 57.4635 146.07 57.4635 145.05C57.4635 144.03 57.6675 143.136 58.0755 142.368C58.4835 141.6 59.0535 141.012 59.7855 140.604C60.5295 140.184 61.3815 139.974 62.3415 139.974C63.2775 139.974 64.1055 140.178 64.8255 140.586C65.5455 140.994 66.0975 141.558 66.4815 142.278C66.8775 142.986 67.0755 143.79 67.0755 144.69ZM65.3835 144.348C65.3835 143.724 65.2455 143.19 64.9695 142.746C64.6935 142.29 64.3155 141.948 63.8355 141.72C63.3675 141.48 62.8455 141.36 62.2695 141.36C61.4415 141.36 60.7335 141.624 60.1455 142.152C59.5695 142.68 59.2395 143.412 59.1555 144.348H65.3835ZM74.0436 139.956C75.2436 139.956 76.2156 140.322 76.9596 141.054C77.7036 141.774 78.0756 142.818 78.0756 144.186V150H76.4556V144.42C76.4556 143.436 76.2096 142.686 75.7176 142.17C75.2256 141.642 74.5536 141.378 73.7016 141.378C72.8376 141.378 72.1476 141.648 71.6316 142.188C71.1276 142.728 70.8756 143.514 70.8756 144.546V150H69.2376V140.136H70.8756V141.54C71.1996 141.036 71.6376 140.646 72.1896 140.37C72.7536 140.094 73.3716 139.956 74.0436 139.956ZM80.1392 145.032C80.1392 144.024 80.3432 143.142 80.7512 142.386C81.1592 141.618 81.7172 141.024 82.4252 140.604C83.1452 140.184 83.9492 139.974 84.8372 139.974C85.6052 139.974 86.3192 140.154 86.9792 140.514C87.6392 140.862 88.1432 141.324 88.4912 141.9V136.68H90.1472V150H88.4912V148.146C88.1672 148.734 87.6872 149.22 87.0512 149.604C86.4152 149.976 85.6712 150.162 84.8192 150.162C83.9432 150.162 83.1452 149.946 82.4252 149.514C81.7172 149.082 81.1592 148.476 80.7512 147.696C80.3432 146.916 80.1392 146.028 80.1392 145.032ZM88.4912 145.05C88.4912 144.306 88.3412 143.658 88.0412 143.106C87.7412 142.554 87.3332 142.134 86.8172 141.846C86.3132 141.546 85.7552 141.396 85.1432 141.396C84.5312 141.396 83.9732 141.54 83.4692 141.828C82.9652 142.116 82.5632 142.536 82.2632 143.088C81.9632 143.64 81.8132 144.288 81.8132 145.032C81.8132 145.788 81.9632 146.448 82.2632 147.012C82.5632 147.564 82.9652 147.99 83.4692 148.29C83.9732 148.578 84.5312 148.722 85.1432 148.722C85.7552 148.722 86.3132 148.578 86.8172 148.29C87.3332 147.99 87.7412 147.564 88.0412 147.012C88.3412 146.448 88.4912 145.794 88.4912 145.05ZM94.5533 136.68V150H92.9153V136.68H94.5533ZM105.841 140.136L99.901 154.644H98.209L100.153 149.892L96.175 140.136H97.993L101.089 148.128L104.149 140.136H105.841Z" fill="#263238"/>
</svg>
