<svg width="123" height="157" viewBox="0 0 123 157" fill="none" xmlns="http://www.w3.org/2000/svg">
<path d="M61.5 68C65.9183 68 69.5 64.4183 69.5 60C69.5 55.5817 65.9183 52 61.5 52C57.0817 52 53.5 55.5817 53.5 60C53.5 64.4183 57.0817 68 61.5 68Z" fill="#0E204E"/>
<path d="M25.5 29.6C30.0044 24.0668 35.5441 19.6354 41.751 16.6C47.9579 13.5646 54.69 11.9948 61.5 11.9948C68.31 11.9948 75.0421 13.5646 81.249 16.6C87.4559 19.6354 92.9956 24.0668 97.5 29.6L91.5 35.2C87.7463 30.4755 83.1299 26.6917 77.9575 24.1C72.7851 21.5082 67.175 20.1678 61.5 20.1678C55.825 20.1678 50.2149 21.5082 45.0425 24.1C39.8701 26.6917 35.2537 30.4755 31.5 35.2L25.5 29.6ZM40.3 42.4C42.9284 39.1514 46.2051 36.5404 49.9014 34.7494C53.5976 32.9583 57.6242 32.0304 61.7 32.0304C65.7758 32.0304 69.8024 32.9583 73.4986 34.7494C77.1949 36.5404 80.4716 39.1514 83.1 42.4L77.5 48C75.626 45.524 73.2513 43.5256 70.5512 42.1525C67.8512 40.7794 64.8947 40.0665 61.9 40.0665C58.9053 40.0665 55.9488 40.7794 53.2488 42.1525C50.5487 43.5256 48.174 45.524 46.3 48L40.3 42.4Z" fill="#0E204E"/>
<path d="M5.364 150.126C4.536 150.126 3.792 149.982 3.132 149.694C2.484 149.394 1.974 148.986 1.602 148.47C1.23 147.942 1.038 147.336 1.026 146.652H2.772C2.832 147.24 3.072 147.738 3.492 148.146C3.924 148.542 4.548 148.74 5.364 148.74C6.144 148.74 6.756 148.548 7.2 148.164C7.656 147.768 7.884 147.264 7.884 146.652C7.884 146.172 7.752 145.782 7.488 145.482C7.224 145.182 6.894 144.954 6.498 144.798C6.102 144.642 5.568 144.474 4.896 144.294C4.068 144.078 3.402 143.862 2.898 143.646C2.406 143.43 1.98 143.094 1.62 142.638C1.272 142.17 1.098 141.546 1.098 140.766C1.098 140.082 1.272 139.476 1.62 138.948C1.968 138.42 2.454 138.012 3.078 137.724C3.714 137.436 4.44 137.292 5.256 137.292C6.432 137.292 7.392 137.586 8.136 138.174C8.892 138.762 9.318 139.542 9.414 140.514H7.614C7.554 140.034 7.302 139.614 6.858 139.254C6.414 138.882 5.826 138.696 5.094 138.696C4.41 138.696 3.852 138.876 3.42 139.236C2.988 139.584 2.772 140.076 2.772 140.712C2.772 141.168 2.898 141.54 3.15 141.828C3.414 142.116 3.732 142.338 4.104 142.494C4.488 142.638 5.022 142.806 5.706 142.998C6.534 143.226 7.2 143.454 7.704 143.682C8.208 143.898 8.64 144.24 9 144.708C9.36 145.164 9.54 145.788 9.54 146.58C9.54 147.192 9.378 147.768 9.054 148.308C8.73 148.848 8.25 149.286 7.614 149.622C6.978 149.958 6.228 150.126 5.364 150.126ZM23.8125 139.956C24.5805 139.956 25.2645 140.118 25.8645 140.442C26.4645 140.754 26.9385 141.228 27.2865 141.864C27.6345 142.5 27.8085 143.274 27.8085 144.186V150H26.1885V144.42C26.1885 143.436 25.9425 142.686 25.4505 142.17C24.9705 141.642 24.3165 141.378 23.4885 141.378C22.6365 141.378 21.9585 141.654 21.4545 142.206C20.9505 142.746 20.6985 143.532 20.6985 144.564V150H19.0785V144.42C19.0785 143.436 18.8325 142.686 18.3405 142.17C17.8605 141.642 17.2065 141.378 16.3785 141.378C15.5265 141.378 14.8485 141.654 14.3445 142.206C13.8405 142.746 13.5885 143.532 13.5885 144.564V150H11.9505V140.136H13.5885V141.558C13.9125 141.042 14.3445 140.646 14.8845 140.37C15.4365 140.094 16.0425 139.956 16.7025 139.956C17.5305 139.956 18.2625 140.142 18.8985 140.514C19.5345 140.886 20.0085 141.432 20.3205 142.152C20.5965 141.456 21.0525 140.916 21.6885 140.532C22.3245 140.148 23.0325 139.956 23.8125 139.956ZM29.8834 145.032C29.8834 144.024 30.0874 143.142 30.4954 142.386C30.9034 141.618 31.4614 141.024 32.1694 140.604C32.8894 140.184 33.6874 139.974 34.5634 139.974C35.4274 139.974 36.1774 140.16 36.8134 140.532C37.4494 140.904 37.9234 141.372 38.2354 141.936V140.136H39.8914V150H38.2354V148.164C37.9114 148.74 37.4254 149.22 36.7774 149.604C36.1414 149.976 35.3974 150.162 34.5454 150.162C33.6694 150.162 32.8774 149.946 32.1694 149.514C31.4614 149.082 30.9034 148.476 30.4954 147.696C30.0874 146.916 29.8834 146.028 29.8834 145.032ZM38.2354 145.05C38.2354 144.306 38.0854 143.658 37.7854 143.106C37.4854 142.554 37.0774 142.134 36.5614 141.846C36.0574 141.546 35.4994 141.396 34.8874 141.396C34.2754 141.396 33.7174 141.54 33.2134 141.828C32.7094 142.116 32.3074 142.536 32.0074 143.088C31.7074 143.64 31.5574 144.288 31.5574 145.032C31.5574 145.788 31.7074 146.448 32.0074 147.012C32.3074 147.564 32.7094 147.99 33.2134 148.29C33.7174 148.578 34.2754 148.722 34.8874 148.722C35.4994 148.722 36.0574 148.578 36.5614 148.29C37.0774 147.99 37.4854 147.564 37.7854 147.012C38.0854 146.448 38.2354 145.794 38.2354 145.05ZM44.2974 141.738C44.5854 141.174 44.9934 140.736 45.5214 140.424C46.0614 140.112 46.7154 139.956 47.4834 139.956V141.648H47.0514C45.2154 141.648 44.2974 142.644 44.2974 144.636V150H42.6594V140.136H44.2974V141.738ZM51.3723 141.486V147.3C51.3723 147.78 51.4743 148.122 51.6783 148.326C51.8823 148.518 52.2363 148.614 52.7403 148.614H53.9463V150H52.4703C51.5583 150 50.8743 149.79 50.4183 149.37C49.9623 148.95 49.7343 148.26 49.7343 147.3V141.486H48.4563V140.136H49.7343V137.652H51.3723V140.136H53.9463V141.486H51.3723ZM70.3958 137.454V150H68.7578V144.312H62.3678V150H60.7298V137.454H62.3678V142.962H68.7578V137.454H70.3958ZM77.4946 150.162C76.5706 150.162 75.7306 149.952 74.9746 149.532C74.2306 149.112 73.6426 148.518 73.2106 147.75C72.7906 146.97 72.5806 146.07 72.5806 145.05C72.5806 144.042 72.7966 143.154 73.2286 142.386C73.6726 141.606 74.2726 141.012 75.0286 140.604C75.7846 140.184 76.6306 139.974 77.5666 139.974C78.5026 139.974 79.3486 140.184 80.1046 140.604C80.8606 141.012 81.4546 141.6 81.8866 142.368C82.3306 143.136 82.5526 144.03 82.5526 145.05C82.5526 146.07 82.3246 146.97 81.8686 147.75C81.4246 148.518 80.8186 149.112 80.0506 149.532C79.2826 149.952 78.4306 150.162 77.4946 150.162ZM77.4946 148.722C78.0826 148.722 78.6346 148.584 79.1506 148.308C79.6666 148.032 80.0806 147.618 80.3926 147.066C80.7166 146.514 80.8786 145.842 80.8786 145.05C80.8786 144.258 80.7226 143.586 80.4106 143.034C80.0986 142.482 79.6906 142.074 79.1866 141.81C78.6826 141.534 78.1366 141.396 77.5486 141.396C76.9486 141.396 76.3966 141.534 75.8926 141.81C75.4006 142.074 75.0046 142.482 74.7046 143.034C74.4046 143.586 74.2546 144.258 74.2546 145.05C74.2546 145.854 74.3986 146.532 74.6866 147.084C74.9866 147.636 75.3826 148.05 75.8746 148.326C76.3666 148.59 76.9066 148.722 77.4946 148.722ZM96.5683 139.956C97.3363 139.956 98.0203 140.118 98.6203 140.442C99.2203 140.754 99.6943 141.228 100.042 141.864C100.39 142.5 100.564 143.274 100.564 144.186V150H98.9443V144.42C98.9443 143.436 98.6983 142.686 98.2063 142.17C97.7263 141.642 97.0723 141.378 96.2443 141.378C95.3923 141.378 94.7143 141.654 94.2103 142.206C93.7063 142.746 93.4543 143.532 93.4543 144.564V150H91.8343V144.42C91.8343 143.436 91.5883 142.686 91.0963 142.17C90.6163 141.642 89.9623 141.378 89.1343 141.378C88.2823 141.378 87.6043 141.654 87.1003 142.206C86.5963 142.746 86.3443 143.532 86.3443 144.564V150H84.7063V140.136H86.3443V141.558C86.6683 141.042 87.1003 140.646 87.6403 140.37C88.1923 140.094 88.7983 139.956 89.4583 139.956C90.2863 139.956 91.0183 140.142 91.6543 140.514C92.2903 140.886 92.7643 141.432 93.0763 142.152C93.3523 141.456 93.8083 140.916 94.4443 140.532C95.0803 140.148 95.7883 139.956 96.5683 139.956ZM112.251 144.69C112.251 145.002 112.233 145.332 112.197 145.68H104.313C104.373 146.652 104.703 147.414 105.303 147.966C105.915 148.506 106.653 148.776 107.517 148.776C108.225 148.776 108.813 148.614 109.281 148.29C109.761 147.954 110.097 147.51 110.289 146.958H112.053C111.789 147.906 111.261 148.68 110.469 149.28C109.677 149.868 108.693 150.162 107.517 150.162C106.581 150.162 105.741 149.952 104.997 149.532C104.265 149.112 103.689 148.518 103.269 147.75C102.849 146.97 102.639 146.07 102.639 145.05C102.639 144.03 102.843 143.136 103.251 142.368C103.659 141.6 104.229 141.012 104.961 140.604C105.705 140.184 106.557 139.974 107.517 139.974C108.453 139.974 109.281 140.178 110.001 140.586C110.721 140.994 111.273 141.558 111.657 142.278C112.053 142.986 112.251 143.79 112.251 144.69ZM110.559 144.348C110.559 143.724 110.421 143.19 110.145 142.746C109.869 142.29 109.491 141.948 109.011 141.72C108.543 141.48 108.021 141.36 107.445 141.36C106.617 141.36 105.909 141.624 105.321 142.152C104.745 142.68 104.415 143.412 104.331 144.348H110.559ZM117.905 150.162C117.149 150.162 116.471 150.036 115.871 149.784C115.271 149.52 114.797 149.16 114.449 148.704C114.101 148.236 113.909 147.702 113.873 147.102H115.565C115.613 147.594 115.841 147.996 116.249 148.308C116.669 148.62 117.215 148.776 117.887 148.776C118.511 148.776 119.003 148.638 119.363 148.362C119.723 148.086 119.903 147.738 119.903 147.318C119.903 146.886 119.711 146.568 119.327 146.364C118.943 146.148 118.349 145.938 117.545 145.734C116.813 145.542 116.213 145.35 115.745 145.158C115.289 144.954 114.893 144.66 114.557 144.276C114.233 143.88 114.071 143.364 114.071 142.728C114.071 142.224 114.221 141.762 114.521 141.342C114.821 140.922 115.247 140.592 115.799 140.352C116.351 140.1 116.981 139.974 117.689 139.974C118.781 139.974 119.663 140.25 120.335 140.802C121.007 141.354 121.367 142.11 121.415 143.07H119.777C119.741 142.554 119.531 142.14 119.147 141.828C118.775 141.516 118.271 141.36 117.635 141.36C117.047 141.36 116.579 141.486 116.231 141.738C115.883 141.99 115.709 142.32 115.709 142.728C115.709 143.052 115.811 143.322 116.015 143.538C116.231 143.742 116.495 143.91 116.807 144.042C117.131 144.162 117.575 144.3 118.139 144.456C118.847 144.648 119.423 144.84 119.867 145.032C120.311 145.212 120.689 145.488 121.001 145.86C121.325 146.232 121.493 146.718 121.505 147.318C121.505 147.858 121.355 148.344 121.055 148.776C120.755 149.208 120.329 149.55 119.777 149.802C119.237 150.042 118.613 150.162 117.905 150.162Z" fill="#263238"/>
</svg>
