<svg width="105" height="157" viewBox="0 0 105 157" fill="none" xmlns="http://www.w3.org/2000/svg">
<path d="M75.8334 46.6667V20C75.8334 16.3334 72.8334 13.3334 69.1667 13.3334H22.5C18.8334 13.3334 15.8334 16.3334 15.8334 20V46.6667C15.8334 50.3334 18.8334 53.3334 22.5 53.3334H69.1667C72.8334 53.3334 75.8334 50.3334 75.8334 46.6667ZM69.1667 46.6667H22.5V20H69.1667V46.6667ZM45.8334 23.3334C40.3 23.3334 35.8334 27.8 35.8334 33.3334C35.8334 38.8667 40.3 43.3334 45.8334 43.3334C51.3667 43.3334 55.8334 38.8667 55.8334 33.3334C55.8334 27.8 51.3667 23.3334 45.8334 23.3334ZM89.1667 23.3334V60C89.1667 63.6667 86.1667 66.6667 82.5 66.6667H25.8334V60H82.5V23.3334H89.1667Z" fill="#0E204E"/>
<path d="M10.89 141.09C10.542 140.358 10.038 139.794 9.378 139.398C8.718 138.99 7.95 138.786 7.074 138.786C6.198 138.786 5.406 138.99 4.698 139.398C4.002 139.794 3.45 140.37 3.042 141.126C2.646 141.87 2.448 142.734 2.448 143.718C2.448 144.702 2.646 145.566 3.042 146.31C3.45 147.054 4.002 147.63 4.698 148.038C5.406 148.434 6.198 148.632 7.074 148.632C8.298 148.632 9.306 148.266 10.098 147.534C10.89 146.802 11.352 145.812 11.484 144.564H6.48V143.232H13.23V144.492C13.134 145.524 12.81 146.472 12.258 147.336C11.706 148.188 10.98 148.866 10.08 149.37C9.18 149.862 8.178 150.108 7.074 150.108C5.91 150.108 4.848 149.838 3.888 149.298C2.928 148.746 2.166 147.984 1.602 147.012C1.05 146.04 0.774 144.942 0.774 143.718C0.774 142.494 1.05 141.396 1.602 140.424C2.166 139.44 2.928 138.678 3.888 138.138C4.848 137.586 5.91 137.31 7.074 137.31C8.406 137.31 9.582 137.64 10.602 138.3C11.634 138.96 12.384 139.89 12.852 141.09H10.89ZM19.6978 150.162C18.7738 150.162 17.9338 149.952 17.1778 149.532C16.4338 149.112 15.8458 148.518 15.4138 147.75C14.9938 146.97 14.7838 146.07 14.7838 145.05C14.7838 144.042 14.9998 143.154 15.4318 142.386C15.8758 141.606 16.4758 141.012 17.2318 140.604C17.9878 140.184 18.8338 139.974 19.7698 139.974C20.7058 139.974 21.5518 140.184 22.3078 140.604C23.0638 141.012 23.6578 141.6 24.0898 142.368C24.5338 143.136 24.7558 144.03 24.7558 145.05C24.7558 146.07 24.5278 146.97 24.0718 147.75C23.6278 148.518 23.0218 149.112 22.2538 149.532C21.4858 149.952 20.6338 150.162 19.6978 150.162ZM19.6978 148.722C20.2858 148.722 20.8378 148.584 21.3538 148.308C21.8698 148.032 22.2838 147.618 22.5958 147.066C22.9198 146.514 23.0818 145.842 23.0818 145.05C23.0818 144.258 22.9258 143.586 22.6138 143.034C22.3018 142.482 21.8938 142.074 21.3898 141.81C20.8858 141.534 20.3398 141.396 19.7518 141.396C19.1518 141.396 18.5998 141.534 18.0958 141.81C17.6038 142.074 17.2078 142.482 16.9078 143.034C16.6078 143.586 16.4578 144.258 16.4578 145.05C16.4578 145.854 16.6018 146.532 16.8898 147.084C17.1898 147.636 17.5858 148.05 18.0778 148.326C18.5698 148.59 19.1098 148.722 19.6978 148.722ZM31.2114 150.162C30.2874 150.162 29.4474 149.952 28.6914 149.532C27.9474 149.112 27.3594 148.518 26.9274 147.75C26.5074 146.97 26.2974 146.07 26.2974 145.05C26.2974 144.042 26.5134 143.154 26.9454 142.386C27.3894 141.606 27.9894 141.012 28.7454 140.604C29.5014 140.184 30.3474 139.974 31.2834 139.974C32.2194 139.974 33.0654 140.184 33.8214 140.604C34.5774 141.012 35.1714 141.6 35.6034 142.368C36.0474 143.136 36.2694 144.03 36.2694 145.05C36.2694 146.07 36.0414 146.97 35.5854 147.75C35.1414 148.518 34.5354 149.112 33.7674 149.532C32.9994 149.952 32.1474 150.162 31.2114 150.162ZM31.2114 148.722C31.7994 148.722 32.3514 148.584 32.8674 148.308C33.3834 148.032 33.7974 147.618 34.1094 147.066C34.4334 146.514 34.5954 145.842 34.5954 145.05C34.5954 144.258 34.4394 143.586 34.1274 143.034C33.8154 142.482 33.4074 142.074 32.9034 141.81C32.3994 141.534 31.8534 141.396 31.2654 141.396C30.6654 141.396 30.1134 141.534 29.6094 141.81C29.1174 142.074 28.7214 142.482 28.4214 143.034C28.1214 143.586 27.9714 144.258 27.9714 145.05C27.9714 145.854 28.1154 146.532 28.4034 147.084C28.7034 147.636 29.0994 148.05 29.5914 148.326C30.0834 148.59 30.6234 148.722 31.2114 148.722ZM37.8111 145.032C37.8111 144.024 38.0151 143.142 38.4231 142.386C38.8311 141.618 39.3891 141.024 40.0971 140.604C40.8171 140.184 41.6211 139.974 42.5091 139.974C43.2771 139.974 43.9911 140.154 44.6511 140.514C45.3111 140.862 45.8151 141.324 46.1631 141.9V136.68H47.8191V150H46.1631V148.146C45.8391 148.734 45.3591 149.22 44.7231 149.604C44.0871 149.976 43.3431 150.162 42.4911 150.162C41.6151 150.162 40.8171 149.946 40.0971 149.514C39.3891 149.082 38.8311 148.476 38.4231 147.696C38.0151 146.916 37.8111 146.028 37.8111 145.032ZM46.1631 145.05C46.1631 144.306 46.0131 143.658 45.7131 143.106C45.4131 142.554 45.0051 142.134 44.4891 141.846C43.9851 141.546 43.4271 141.396 42.8151 141.396C42.2031 141.396 41.6451 141.54 41.1411 141.828C40.6371 142.116 40.2351 142.536 39.9351 143.088C39.6351 143.64 39.4851 144.288 39.4851 145.032C39.4851 145.788 39.6351 146.448 39.9351 147.012C40.2351 147.564 40.6371 147.99 41.1411 148.29C41.6451 148.578 42.2031 148.722 42.8151 148.722C43.4271 148.722 43.9851 148.578 44.4891 148.29C45.0051 147.99 45.4131 147.564 45.7131 147.012C46.0131 146.448 46.1631 145.794 46.1631 145.05ZM61.992 150L59.004 144.87H57.024V150H55.386V137.454H59.436C60.384 137.454 61.182 137.616 61.83 137.94C62.49 138.264 62.982 138.702 63.306 139.254C63.63 139.806 63.792 140.436 63.792 141.144C63.792 142.008 63.54 142.77 63.036 143.43C62.544 144.09 61.8 144.528 60.804 144.744L63.954 150H61.992ZM57.024 143.556H59.436C60.324 143.556 60.99 143.34 61.434 142.908C61.878 142.464 62.1 141.876 62.1 141.144C62.1 140.4 61.878 139.824 61.434 139.416C61.002 139.008 60.336 138.804 59.436 138.804H57.024V143.556ZM65.7252 145.032C65.7252 144.024 65.9292 143.142 66.3372 142.386C66.7452 141.618 67.3032 141.024 68.0112 140.604C68.7312 140.184 69.5292 139.974 70.4052 139.974C71.2692 139.974 72.0192 140.16 72.6552 140.532C73.2912 140.904 73.7652 141.372 74.0772 141.936V140.136H75.7332V150H74.0772V148.164C73.7532 148.74 73.2672 149.22 72.6192 149.604C71.9832 149.976 71.2392 150.162 70.3872 150.162C69.5112 150.162 68.7192 149.946 68.0112 149.514C67.3032 149.082 66.7452 148.476 66.3372 147.696C65.9292 146.916 65.7252 146.028 65.7252 145.032ZM74.0772 145.05C74.0772 144.306 73.9272 143.658 73.6272 143.106C73.3272 142.554 72.9192 142.134 72.4032 141.846C71.8992 141.546 71.3412 141.396 70.7292 141.396C70.1172 141.396 69.5592 141.54 69.0552 141.828C68.5512 142.116 68.1492 142.536 67.8492 143.088C67.5492 143.64 67.3992 144.288 67.3992 145.032C67.3992 145.788 67.5492 146.448 67.8492 147.012C68.1492 147.564 68.5512 147.99 69.0552 148.29C69.5592 148.578 70.1172 148.722 70.7292 148.722C71.3412 148.722 71.8992 148.578 72.4032 148.29C72.9192 147.99 73.3272 147.564 73.6272 147.012C73.9272 146.448 74.0772 145.794 74.0772 145.05ZM80.4992 141.486V147.3C80.4992 147.78 80.6012 148.122 80.8052 148.326C81.0092 148.518 81.3632 148.614 81.8672 148.614H83.0732V150H81.5972C80.6852 150 80.0012 149.79 79.5452 149.37C79.0892 148.95 78.8612 148.26 78.8612 147.3V141.486H77.5832V140.136H78.8612V137.652H80.4992V140.136H83.0732V141.486H80.4992ZM94.0579 144.69C94.0579 145.002 94.0399 145.332 94.0039 145.68H86.1199C86.1799 146.652 86.5099 147.414 87.1099 147.966C87.7219 148.506 88.4599 148.776 89.3239 148.776C90.0319 148.776 90.6199 148.614 91.0879 148.29C91.5679 147.954 91.9039 147.51 92.0959 146.958H93.8599C93.5959 147.906 93.0679 148.68 92.2759 149.28C91.4839 149.868 90.4999 150.162 89.3239 150.162C88.3879 150.162 87.5479 149.952 86.8039 149.532C86.0719 149.112 85.4959 148.518 85.0759 147.75C84.6559 146.97 84.4459 146.07 84.4459 145.05C84.4459 144.03 84.6499 143.136 85.0579 142.368C85.4659 141.6 86.0359 141.012 86.7679 140.604C87.5119 140.184 88.3639 139.974 89.3239 139.974C90.2599 139.974 91.0879 140.178 91.8079 140.586C92.5279 140.994 93.0799 141.558 93.4639 142.278C93.8599 142.986 94.0579 143.79 94.0579 144.69ZM92.3659 144.348C92.3659 143.724 92.2279 143.19 91.9519 142.746C91.6759 142.29 91.2979 141.948 90.8179 141.72C90.3499 141.48 89.8279 141.36 89.2519 141.36C88.4239 141.36 87.7159 141.624 87.1279 142.152C86.5519 142.68 86.2219 143.412 86.1379 144.348H92.3659ZM99.712 150.162C98.956 150.162 98.278 150.036 97.678 149.784C97.078 149.52 96.604 149.16 96.256 148.704C95.908 148.236 95.716 147.702 95.68 147.102H97.372C97.42 147.594 97.648 147.996 98.056 148.308C98.476 148.62 99.022 148.776 99.694 148.776C100.318 148.776 100.81 148.638 101.17 148.362C101.53 148.086 101.71 147.738 101.71 147.318C101.71 146.886 101.518 146.568 101.134 146.364C100.75 146.148 100.156 145.938 99.352 145.734C98.62 145.542 98.02 145.35 97.552 145.158C97.096 144.954 96.7 144.66 96.364 144.276C96.04 143.88 95.878 143.364 95.878 142.728C95.878 142.224 96.028 141.762 96.328 141.342C96.628 140.922 97.054 140.592 97.606 140.352C98.158 140.1 98.788 139.974 99.496 139.974C100.588 139.974 101.47 140.25 102.142 140.802C102.814 141.354 103.174 142.11 103.222 143.07H101.584C101.548 142.554 101.338 142.14 100.954 141.828C100.582 141.516 100.078 141.36 99.442 141.36C98.854 141.36 98.386 141.486 98.038 141.738C97.69 141.99 97.516 142.32 97.516 142.728C97.516 143.052 97.618 143.322 97.822 143.538C98.038 143.742 98.302 143.91 98.614 144.042C98.938 144.162 99.382 144.3 99.946 144.456C100.654 144.648 101.23 144.84 101.674 145.032C102.118 145.212 102.496 145.488 102.808 145.86C103.132 146.232 103.3 146.718 103.312 147.318C103.312 147.858 103.162 148.344 102.862 148.776C102.562 149.208 102.136 149.55 101.584 149.802C101.044 150.042 100.42 150.162 99.712 150.162Z" fill="#263238"/>
</svg>
