<svg width="180" height="157" viewBox="0 0 180 157" fill="none" xmlns="http://www.w3.org/2000/svg">
<path d="M103.75 6.25V9.765C101.7 10.117 99.7539 10.9178 98.05 12.11L95.47 9.685L92.0325 13.36L94.5325 15.7025C93.3888 17.3692 92.6156 19.2617 92.265 21.2525H88.75V26.2525H92.265C92.63 28.3275 93.45 30.2175 94.61 31.8775L91.9525 34.4525L95.5525 38.0525L98.1275 35.3925C99.7875 36.5525 101.678 37.3725 103.753 37.7375V41.25H108.753V37.735C110.743 37.3852 112.636 36.6129 114.303 35.47L116.643 37.97L120.318 34.53L117.893 31.955C119.068 30.28 119.868 28.3425 120.238 26.25H123.75V21.25H120.235C119.875 19.2258 119.075 17.3054 117.89 15.625L120.235 13.28L116.718 9.765L114.375 12.11C112.695 10.9254 110.774 10.1248 108.75 9.765V6.25H103.75ZM106.25 14.5325C107.463 14.5245 108.665 14.7575 109.787 15.2179C110.909 15.6782 111.929 16.3568 112.786 17.2143C113.644 18.0718 114.323 19.0911 114.784 20.213C115.244 21.3349 115.478 22.5372 115.47 23.75C115.47 28.8875 111.388 32.97 106.25 32.97C101.113 32.97 97.03 28.8875 97.03 23.75C97.03 18.6125 101.113 14.53 106.25 14.53V14.5325ZM73.825 29.295L69.22 31.17L71.015 35.695C68.6256 37.1249 66.6156 39.1092 65.155 41.48L60.705 39.68L58.83 44.2925L63.28 46.0875C62.9288 47.4398 62.7457 48.8303 62.735 50.2275C62.735 51.6525 62.9475 53.0425 63.28 54.3675L58.83 56.1675L60.705 60.775L65.155 58.975C66.6022 61.3768 68.6138 63.3892 71.015 64.8375L69.215 69.2875L73.8275 71.1625L75.6275 66.7125C76.9797 67.0646 78.3703 67.2477 79.7675 67.2575C81.1925 67.2575 82.5875 67.045 83.9075 66.7125L85.7075 71.1625L90.315 69.2875L88.515 64.8375C90.8875 63.379 92.8722 61.3686 94.3 58.9775L98.825 60.7725L100.7 56.165L96.175 54.365C96.5 53.04 96.72 51.6475 96.72 50.225C96.72 48.8 96.5025 47.405 96.17 46.0825L100.703 44.2875L98.8275 39.675L94.3025 41.475C92.8665 39.1102 90.8823 37.126 88.5175 35.69L90.3175 31.165L85.705 29.29L83.9125 33.815C82.5589 33.466 81.1678 33.2838 79.77 33.2725C78.345 33.2725 76.955 33.4875 75.63 33.8175L73.83 29.2925L73.825 29.295ZM79.765 38.275C86.4225 38.275 91.715 43.575 91.715 50.23C91.72 56.8875 86.4225 62.26 79.765 62.26C78.1846 62.262 76.6194 61.9522 75.159 61.3483C73.6985 60.7444 72.3716 59.8584 71.2541 58.7409C70.1366 57.6234 69.2506 56.2965 68.6467 54.836C68.0428 53.3756 67.733 51.8104 67.735 50.23C67.735 43.5725 73.11 38.275 79.765 38.275Z" fill="#0E204E"/>
<path d="M5.364 150.126C4.536 150.126 3.792 149.982 3.132 149.694C2.484 149.394 1.974 148.986 1.602 148.47C1.23 147.942 1.038 147.336 1.026 146.652H2.772C2.832 147.24 3.072 147.738 3.492 148.146C3.924 148.542 4.548 148.74 5.364 148.74C6.144 148.74 6.756 148.548 7.2 148.164C7.656 147.768 7.884 147.264 7.884 146.652C7.884 146.172 7.752 145.782 7.488 145.482C7.224 145.182 6.894 144.954 6.498 144.798C6.102 144.642 5.568 144.474 4.896 144.294C4.068 144.078 3.402 143.862 2.898 143.646C2.406 143.43 1.98 143.094 1.62 142.638C1.272 142.17 1.098 141.546 1.098 140.766C1.098 140.082 1.272 139.476 1.62 138.948C1.968 138.42 2.454 138.012 3.078 137.724C3.714 137.436 4.44 137.292 5.256 137.292C6.432 137.292 7.392 137.586 8.136 138.174C8.892 138.762 9.318 139.542 9.414 140.514H7.614C7.554 140.034 7.302 139.614 6.858 139.254C6.414 138.882 5.826 138.696 5.094 138.696C4.41 138.696 3.852 138.876 3.42 139.236C2.988 139.584 2.772 140.076 2.772 140.712C2.772 141.168 2.898 141.54 3.15 141.828C3.414 142.116 3.732 142.338 4.104 142.494C4.488 142.638 5.022 142.806 5.706 142.998C6.534 143.226 7.2 143.454 7.704 143.682C8.208 143.898 8.64 144.24 9 144.708C9.36 145.164 9.54 145.788 9.54 146.58C9.54 147.192 9.378 147.768 9.054 148.308C8.73 148.848 8.25 149.286 7.614 149.622C6.978 149.958 6.228 150.126 5.364 150.126ZM20.9505 144.69C20.9505 145.002 20.9325 145.332 20.8965 145.68H13.0125C13.0725 146.652 13.4025 147.414 14.0025 147.966C14.6145 148.506 15.3525 148.776 16.2165 148.776C16.9245 148.776 17.5125 148.614 17.9805 148.29C18.4605 147.954 18.7965 147.51 18.9885 146.958H20.7525C20.4885 147.906 19.9605 148.68 19.1685 149.28C18.3765 149.868 17.3925 150.162 16.2165 150.162C15.2805 150.162 14.4405 149.952 13.6965 149.532C12.9645 149.112 12.3885 148.518 11.9685 147.75C11.5485 146.97 11.3385 146.07 11.3385 145.05C11.3385 144.03 11.5425 143.136 11.9505 142.368C12.3585 141.6 12.9285 141.012 13.6605 140.604C14.4045 140.184 15.2565 139.974 16.2165 139.974C17.1525 139.974 17.9805 140.178 18.7005 140.586C19.4205 140.994 19.9725 141.558 20.3565 142.278C20.7525 142.986 20.9505 143.79 20.9505 144.69ZM19.2585 144.348C19.2585 143.724 19.1205 143.19 18.8445 142.746C18.5685 142.29 18.1905 141.948 17.7105 141.72C17.2425 141.48 16.7205 141.36 16.1445 141.36C15.3165 141.36 14.6085 141.624 14.0205 142.152C13.4445 142.68 13.1145 143.412 13.0305 144.348H19.2585ZM24.7506 141.738C25.0386 141.174 25.4466 140.736 25.9746 140.424C26.5146 140.112 27.1686 139.956 27.9366 139.956V141.648H27.5046C25.6686 141.648 24.7506 142.644 24.7506 144.636V150H23.1126V140.136H24.7506V141.738ZM33.4994 148.488L36.5594 140.136H38.3054L34.4354 150H32.5274L28.6574 140.136H30.4214L33.4994 148.488ZM40.7633 138.534C40.4513 138.534 40.1873 138.426 39.9713 138.21C39.7553 137.994 39.6473 137.73 39.6473 137.418C39.6473 137.106 39.7553 136.842 39.9713 136.626C40.1873 136.41 40.4513 136.302 40.7633 136.302C41.0633 136.302 41.3153 136.41 41.5193 136.626C41.7353 136.842 41.8433 137.106 41.8433 137.418C41.8433 137.73 41.7353 137.994 41.5193 138.21C41.3153 138.426 41.0633 138.534 40.7633 138.534ZM41.5553 140.136V150H39.9173V140.136H41.5553ZM43.7349 145.05C43.7349 144.03 43.9389 143.142 44.3469 142.386C44.7549 141.618 45.3189 141.024 46.0389 140.604C46.7709 140.184 47.6049 139.974 48.5409 139.974C49.7529 139.974 50.7489 140.268 51.5289 140.856C52.3209 141.444 52.8429 142.26 53.0949 143.304H51.3309C51.1629 142.704 50.8329 142.23 50.3409 141.882C49.8609 141.534 49.2609 141.36 48.5409 141.36C47.6049 141.36 46.8489 141.684 46.2729 142.332C45.6969 142.968 45.4089 143.874 45.4089 145.05C45.4089 146.238 45.6969 147.156 46.2729 147.804C46.8489 148.452 47.6049 148.776 48.5409 148.776C49.2609 148.776 49.8609 148.608 50.3409 148.272C50.8209 147.936 51.1509 147.456 51.3309 146.832H53.0949C52.8309 147.84 52.3029 148.65 51.5109 149.262C50.7189 149.862 49.7289 150.162 48.5409 150.162C47.6049 150.162 46.7709 149.952 46.0389 149.532C45.3189 149.112 44.7549 148.518 44.3469 147.75C43.9389 146.982 43.7349 146.082 43.7349 145.05ZM64.2805 144.69C64.2805 145.002 64.2625 145.332 64.2265 145.68H56.3425C56.4025 146.652 56.7325 147.414 57.3325 147.966C57.9445 148.506 58.6825 148.776 59.5465 148.776C60.2545 148.776 60.8425 148.614 61.3105 148.29C61.7905 147.954 62.1265 147.51 62.3185 146.958H64.0825C63.8185 147.906 63.2905 148.68 62.4985 149.28C61.7065 149.868 60.7225 150.162 59.5465 150.162C58.6105 150.162 57.7705 149.952 57.0265 149.532C56.2945 149.112 55.7185 148.518 55.2985 147.75C54.8785 146.97 54.6685 146.07 54.6685 145.05C54.6685 144.03 54.8725 143.136 55.2805 142.368C55.6885 141.6 56.2585 141.012 56.9905 140.604C57.7345 140.184 58.5865 139.974 59.5465 139.974C60.4825 139.974 61.3105 140.178 62.0305 140.586C62.7505 140.994 63.3025 141.558 63.6865 142.278C64.0825 142.986 64.2805 143.79 64.2805 144.69ZM62.5885 144.348C62.5885 143.724 62.4505 143.19 62.1745 142.746C61.8985 142.29 61.5205 141.948 61.0405 141.72C60.5725 141.48 60.0505 141.36 59.4745 141.36C58.6465 141.36 57.9385 141.624 57.3505 142.152C56.7745 142.68 56.4445 143.412 56.3605 144.348H62.5885ZM65.8306 145.032C65.8306 144.024 66.0346 143.142 66.4426 142.386C66.8506 141.618 67.4086 141.024 68.1166 140.604C68.8366 140.184 69.6406 139.974 70.5286 139.974C71.2966 139.974 72.0106 140.154 72.6706 140.514C73.3306 140.862 73.8346 141.324 74.1826 141.9V136.68H75.8386V150H74.1826V148.146C73.8586 148.734 73.3786 149.22 72.7426 149.604C72.1066 149.976 71.3626 150.162 70.5106 150.162C69.6346 150.162 68.8366 149.946 68.1166 149.514C67.4086 149.082 66.8506 148.476 66.4426 147.696C66.0346 146.916 65.8306 146.028 65.8306 145.032ZM74.1826 145.05C74.1826 144.306 74.0326 143.658 73.7326 143.106C73.4326 142.554 73.0246 142.134 72.5086 141.846C72.0046 141.546 71.4466 141.396 70.8346 141.396C70.2226 141.396 69.6646 141.54 69.1606 141.828C68.6566 142.116 68.2546 142.536 67.9546 143.088C67.6546 143.64 67.5046 144.288 67.5046 145.032C67.5046 145.788 67.6546 146.448 67.9546 147.012C68.2546 147.564 68.6566 147.99 69.1606 148.29C69.6646 148.578 70.2226 148.722 70.8346 148.722C71.4466 148.722 72.0046 148.578 72.5086 148.29C73.0246 147.99 73.4326 147.564 73.7326 147.012C74.0326 146.448 74.1826 145.794 74.1826 145.05ZM90.8215 147.21H85.3495L84.3415 150H82.6135L87.1495 137.526H89.0395L93.5575 150H91.8295L90.8215 147.21ZM90.3535 145.878L88.0855 139.542L85.8175 145.878H90.3535ZM97.1724 141.954C97.4964 141.39 97.9764 140.922 98.6124 140.55C99.2604 140.166 100.01 139.974 100.862 139.974C101.738 139.974 102.53 140.184 103.238 140.604C103.958 141.024 104.522 141.618 104.93 142.386C105.338 143.142 105.542 144.024 105.542 145.032C105.542 146.028 105.338 146.916 104.93 147.696C104.522 148.476 103.958 149.082 103.238 149.514C102.53 149.946 101.738 150.162 100.862 150.162C100.022 150.162 99.2784 149.976 98.6304 149.604C97.9944 149.22 97.5084 148.746 97.1724 148.182V154.68H95.5344V140.136H97.1724V141.954ZM103.868 145.032C103.868 144.288 103.718 143.64 103.418 143.088C103.118 142.536 102.71 142.116 102.194 141.828C101.69 141.54 101.132 141.396 100.52 141.396C99.9204 141.396 99.3624 141.546 98.8464 141.846C98.3424 142.134 97.9344 142.56 97.6224 143.124C97.3224 143.676 97.1724 144.318 97.1724 145.05C97.1724 145.794 97.3224 146.448 97.6224 147.012C97.9344 147.564 98.3424 147.99 98.8464 148.29C99.3624 148.578 99.9204 148.722 100.52 148.722C101.132 148.722 101.69 148.578 102.194 148.29C102.71 147.99 103.118 147.564 103.418 147.012C103.718 146.448 103.868 145.788 103.868 145.032ZM107.087 145.032C107.087 144.024 107.291 143.142 107.699 142.386C108.107 141.618 108.665 141.024 109.373 140.604C110.093 140.184 110.891 139.974 111.767 139.974C112.631 139.974 113.381 140.16 114.017 140.532C114.653 140.904 115.127 141.372 115.439 141.936V140.136H117.095V150H115.439V148.164C115.115 148.74 114.629 149.22 113.981 149.604C113.345 149.976 112.601 150.162 111.749 150.162C110.873 150.162 110.081 149.946 109.373 149.514C108.665 149.082 108.107 148.476 107.699 147.696C107.291 146.916 107.087 146.028 107.087 145.032ZM115.439 145.05C115.439 144.306 115.289 143.658 114.989 143.106C114.689 142.554 114.281 142.134 113.765 141.846C113.261 141.546 112.703 141.396 112.091 141.396C111.479 141.396 110.921 141.54 110.417 141.828C109.913 142.116 109.511 142.536 109.211 143.088C108.911 143.64 108.761 144.288 108.761 145.032C108.761 145.788 108.911 146.448 109.211 147.012C109.511 147.564 109.913 147.99 110.417 148.29C110.921 148.578 111.479 148.722 112.091 148.722C112.703 148.722 113.261 148.578 113.765 148.29C114.281 147.99 114.689 147.564 114.989 147.012C115.289 146.448 115.439 145.794 115.439 145.05ZM121.501 141.738C121.789 141.174 122.197 140.736 122.725 140.424C123.265 140.112 123.919 139.956 124.687 139.956V141.648H124.255C122.419 141.648 121.501 142.644 121.501 144.636V150H119.863V140.136H121.501V141.738ZM128.575 141.486V147.3C128.575 147.78 128.677 148.122 128.881 148.326C129.085 148.518 129.439 148.614 129.943 148.614H131.149V150H129.673C128.761 150 128.077 149.79 127.621 149.37C127.165 148.95 126.937 148.26 126.937 147.3V141.486H125.659V140.136H126.937V137.652H128.575V140.136H131.149V141.486H128.575ZM144.996 139.956C145.764 139.956 146.448 140.118 147.048 140.442C147.648 140.754 148.122 141.228 148.47 141.864C148.818 142.5 148.992 143.274 148.992 144.186V150H147.372V144.42C147.372 143.436 147.126 142.686 146.634 142.17C146.154 141.642 145.5 141.378 144.672 141.378C143.82 141.378 143.142 141.654 142.638 142.206C142.134 142.746 141.882 143.532 141.882 144.564V150H140.262V144.42C140.262 143.436 140.016 142.686 139.524 142.17C139.044 141.642 138.39 141.378 137.562 141.378C136.71 141.378 136.032 141.654 135.528 142.206C135.024 142.746 134.772 143.532 134.772 144.564V150H133.134V140.136H134.772V141.558C135.096 141.042 135.528 140.646 136.068 140.37C136.62 140.094 137.226 139.956 137.886 139.956C138.714 139.956 139.446 140.142 140.082 140.514C140.718 140.886 141.192 141.432 141.504 142.152C141.78 141.456 142.236 140.916 142.872 140.532C143.508 140.148 144.216 139.956 144.996 139.956ZM160.679 144.69C160.679 145.002 160.661 145.332 160.625 145.68H152.741C152.801 146.652 153.131 147.414 153.731 147.966C154.343 148.506 155.081 148.776 155.945 148.776C156.653 148.776 157.241 148.614 157.709 148.29C158.189 147.954 158.525 147.51 158.717 146.958H160.481C160.217 147.906 159.689 148.68 158.897 149.28C158.105 149.868 157.121 150.162 155.945 150.162C155.009 150.162 154.169 149.952 153.425 149.532C152.693 149.112 152.117 148.518 151.697 147.75C151.277 146.97 151.067 146.07 151.067 145.05C151.067 144.03 151.271 143.136 151.679 142.368C152.087 141.6 152.657 141.012 153.389 140.604C154.133 140.184 154.985 139.974 155.945 139.974C156.881 139.974 157.709 140.178 158.429 140.586C159.149 140.994 159.701 141.558 160.085 142.278C160.481 142.986 160.679 143.79 160.679 144.69ZM158.987 144.348C158.987 143.724 158.849 143.19 158.573 142.746C158.297 142.29 157.919 141.948 157.439 141.72C156.971 141.48 156.449 141.36 155.873 141.36C155.045 141.36 154.337 141.624 153.749 142.152C153.173 142.68 152.843 143.412 152.759 144.348H158.987ZM167.647 139.956C168.847 139.956 169.819 140.322 170.563 141.054C171.307 141.774 171.679 142.818 171.679 144.186V150H170.059V144.42C170.059 143.436 169.813 142.686 169.321 142.17C168.829 141.642 168.157 141.378 167.305 141.378C166.441 141.378 165.751 141.648 165.235 142.188C164.731 142.728 164.479 143.514 164.479 144.546V150H162.841V140.136H164.479V141.54C164.803 141.036 165.241 140.646 165.793 140.37C166.357 140.094 166.975 139.956 167.647 139.956ZM176.353 141.486V147.3C176.353 147.78 176.455 148.122 176.659 148.326C176.863 148.518 177.217 148.614 177.721 148.614H178.927V150H177.451C176.539 150 175.855 149.79 175.399 149.37C174.943 148.95 174.715 148.26 174.715 147.3V141.486H173.437V140.136H174.715V137.652H176.353V140.136H178.927V141.486H176.353Z" fill="#263238"/>
</svg>
