<svg width="139" height="157" viewBox="0 0 139 157" fill="none" xmlns="http://www.w3.org/2000/svg">
<path d="M69.5 50V57.5M42 37.5V75H97V37.5H42ZM52 37.5C52 22.5 52 12.5 69.5 12.5C87 12.5 87 22.5 87 37.5H52Z" stroke="#0E204E" stroke-width="2" stroke-linecap="round" stroke-linejoin="round"/>
<path d="M69.5 62.5C70.8807 62.5 72 61.3807 72 60C72 58.6193 70.8807 57.5 69.5 57.5C68.1193 57.5 67 58.6193 67 60C67 61.3807 68.1193 62.5 69.5 62.5Z" stroke="#0E204E" stroke-width="2" stroke-linecap="round" stroke-linejoin="round"/>
<path d="M9.774 141.126C9.774 142.17 9.414 143.04 8.694 143.736C7.986 144.42 6.9 144.762 5.436 144.762H3.024V150H1.386V137.454H5.436C6.852 137.454 7.926 137.796 8.658 138.48C9.402 139.164 9.774 140.046 9.774 141.126ZM5.436 143.412C6.348 143.412 7.02 143.214 7.452 142.818C7.884 142.422 8.1 141.858 8.1 141.126C8.1 139.578 7.212 138.804 5.436 138.804H3.024V143.412H5.436ZM13.4478 141.738C13.7358 141.174 14.1438 140.736 14.6718 140.424C15.2118 140.112 15.8658 139.956 16.6338 139.956V141.648H16.2018C14.3658 141.648 13.4478 142.644 13.4478 144.636V150H11.8098V140.136H13.4478V141.738ZM19.3707 138.534C19.0587 138.534 18.7947 138.426 18.5787 138.21C18.3627 137.994 18.2547 137.73 18.2547 137.418C18.2547 137.106 18.3627 136.842 18.5787 136.626C18.7947 136.41 19.0587 136.302 19.3707 136.302C19.6707 136.302 19.9227 136.41 20.1267 136.626C20.3427 136.842 20.4507 137.106 20.4507 137.418C20.4507 137.73 20.3427 137.994 20.1267 138.21C19.9227 138.426 19.6707 138.534 19.3707 138.534ZM20.1627 140.136V150H18.5247V140.136H20.1627ZM26.6264 148.488L29.6864 140.136H31.4324L27.5624 150H25.6544L21.7844 140.136H23.5484L26.6264 148.488ZM32.4322 145.032C32.4322 144.024 32.6362 143.142 33.0442 142.386C33.4522 141.618 34.0102 141.024 34.7182 140.604C35.4382 140.184 36.2362 139.974 37.1122 139.974C37.9762 139.974 38.7262 140.16 39.3622 140.532C39.9982 140.904 40.4722 141.372 40.7842 141.936V140.136H42.4402V150H40.7842V148.164C40.4602 148.74 39.9742 149.22 39.3262 149.604C38.6902 149.976 37.9462 150.162 37.0942 150.162C36.2182 150.162 35.4262 149.946 34.7182 149.514C34.0102 149.082 33.4522 148.476 33.0442 147.696C32.6362 146.916 32.4322 146.028 32.4322 145.032ZM40.7842 145.05C40.7842 144.306 40.6342 143.658 40.3342 143.106C40.0342 142.554 39.6262 142.134 39.1102 141.846C38.6062 141.546 38.0482 141.396 37.4362 141.396C36.8242 141.396 36.2662 141.54 35.7622 141.828C35.2582 142.116 34.8562 142.536 34.5562 143.088C34.2562 143.64 34.1062 144.288 34.1062 145.032C34.1062 145.788 34.2562 146.448 34.5562 147.012C34.8562 147.564 35.2582 147.99 35.7622 148.29C36.2662 148.578 36.8242 148.722 37.4362 148.722C38.0482 148.722 38.6062 148.578 39.1102 148.29C39.6262 147.99 40.0342 147.564 40.3342 147.012C40.6342 146.448 40.7842 145.794 40.7842 145.05ZM47.2063 141.486V147.3C47.2063 147.78 47.3083 148.122 47.5123 148.326C47.7163 148.518 48.0703 148.614 48.5743 148.614H49.7803V150H48.3043C47.3923 150 46.7083 149.79 46.2523 149.37C45.7963 148.95 45.5683 148.26 45.5683 147.3V141.486H44.2903V140.136H45.5683V137.652H47.2063V140.136H49.7803V141.486H47.2063ZM60.7649 144.69C60.7649 145.002 60.7469 145.332 60.7109 145.68H52.8269C52.8869 146.652 53.2169 147.414 53.8169 147.966C54.4289 148.506 55.1669 148.776 56.0309 148.776C56.7389 148.776 57.3269 148.614 57.7949 148.29C58.2749 147.954 58.6109 147.51 58.8029 146.958H60.5669C60.3029 147.906 59.7749 148.68 58.9829 149.28C58.1909 149.868 57.2069 150.162 56.0309 150.162C55.0949 150.162 54.2549 149.952 53.5109 149.532C52.7789 149.112 52.2029 148.518 51.7829 147.75C51.3629 146.97 51.1529 146.07 51.1529 145.05C51.1529 144.03 51.3569 143.136 51.7649 142.368C52.1729 141.6 52.7429 141.012 53.4749 140.604C54.2189 140.184 55.0709 139.974 56.0309 139.974C56.9669 139.974 57.7949 140.178 58.5149 140.586C59.2349 140.994 59.7869 141.558 60.1709 142.278C60.5669 142.986 60.7649 143.79 60.7649 144.69ZM59.0729 144.348C59.0729 143.724 58.9349 143.19 58.6589 142.746C58.3829 142.29 58.0049 141.948 57.5249 141.72C57.0569 141.48 56.5349 141.36 55.9589 141.36C55.1309 141.36 54.4229 141.624 53.8349 142.152C53.2589 142.68 52.9289 143.412 52.8449 144.348H59.0729ZM71.7038 150.126C70.8758 150.126 70.1318 149.982 69.4718 149.694C68.8238 149.394 68.3138 148.986 67.9418 148.47C67.5698 147.942 67.3778 147.336 67.3658 146.652H69.1118C69.1718 147.24 69.4118 147.738 69.8318 148.146C70.2638 148.542 70.8878 148.74 71.7038 148.74C72.4838 148.74 73.0958 148.548 73.5398 148.164C73.9958 147.768 74.2238 147.264 74.2238 146.652C74.2238 146.172 74.0918 145.782 73.8278 145.482C73.5638 145.182 73.2338 144.954 72.8378 144.798C72.4418 144.642 71.9078 144.474 71.2358 144.294C70.4078 144.078 69.7418 143.862 69.2378 143.646C68.7458 143.43 68.3198 143.094 67.9598 142.638C67.6118 142.17 67.4378 141.546 67.4378 140.766C67.4378 140.082 67.6118 139.476 67.9598 138.948C68.3078 138.42 68.7938 138.012 69.4178 137.724C70.0538 137.436 70.7798 137.292 71.5958 137.292C72.7718 137.292 73.7318 137.586 74.4758 138.174C75.2318 138.762 75.6578 139.542 75.7538 140.514H73.9538C73.8938 140.034 73.6418 139.614 73.1978 139.254C72.7538 138.882 72.1658 138.696 71.4338 138.696C70.7498 138.696 70.1918 138.876 69.7598 139.236C69.3278 139.584 69.1118 140.076 69.1118 140.712C69.1118 141.168 69.2378 141.54 69.4898 141.828C69.7538 142.116 70.0718 142.338 70.4438 142.494C70.8278 142.638 71.3618 142.806 72.0458 142.998C72.8738 143.226 73.5398 143.454 74.0438 143.682C74.5478 143.898 74.9798 144.24 75.3398 144.708C75.6998 145.164 75.8798 145.788 75.8798 146.58C75.8798 147.192 75.7178 147.768 75.3938 148.308C75.0698 148.848 74.5898 149.286 73.9538 149.622C73.3178 149.958 72.5678 150.126 71.7038 150.126ZM87.2903 144.69C87.2903 145.002 87.2723 145.332 87.2363 145.68H79.3523C79.4123 146.652 79.7423 147.414 80.3423 147.966C80.9543 148.506 81.6923 148.776 82.5563 148.776C83.2643 148.776 83.8523 148.614 84.3203 148.29C84.8003 147.954 85.1363 147.51 85.3283 146.958H87.0923C86.8283 147.906 86.3003 148.68 85.5083 149.28C84.7163 149.868 83.7323 150.162 82.5563 150.162C81.6203 150.162 80.7803 149.952 80.0363 149.532C79.3043 149.112 78.7283 148.518 78.3083 147.75C77.8883 146.97 77.6783 146.07 77.6783 145.05C77.6783 144.03 77.8823 143.136 78.2903 142.368C78.6983 141.6 79.2683 141.012 80.0003 140.604C80.7443 140.184 81.5963 139.974 82.5563 139.974C83.4923 139.974 84.3203 140.178 85.0403 140.586C85.7603 140.994 86.3123 141.558 86.6963 142.278C87.0923 142.986 87.2903 143.79 87.2903 144.69ZM85.5983 144.348C85.5983 143.724 85.4603 143.19 85.1843 142.746C84.9083 142.29 84.5303 141.948 84.0503 141.72C83.5823 141.48 83.0603 141.36 82.4843 141.36C81.6563 141.36 80.9483 141.624 80.3603 142.152C79.7843 142.68 79.4543 143.412 79.3703 144.348H85.5983ZM88.8404 145.05C88.8404 144.03 89.0444 143.142 89.4524 142.386C89.8604 141.618 90.4244 141.024 91.1444 140.604C91.8764 140.184 92.7104 139.974 93.6464 139.974C94.8584 139.974 95.8544 140.268 96.6344 140.856C97.4264 141.444 97.9484 142.26 98.2004 143.304H96.4364C96.2684 142.704 95.9384 142.23 95.4464 141.882C94.9664 141.534 94.3664 141.36 93.6464 141.36C92.7104 141.36 91.9544 141.684 91.3784 142.332C90.8024 142.968 90.5144 143.874 90.5144 145.05C90.5144 146.238 90.8024 147.156 91.3784 147.804C91.9544 148.452 92.7104 148.776 93.6464 148.776C94.3664 148.776 94.9664 148.608 95.4464 148.272C95.9264 147.936 96.2564 147.456 96.4364 146.832H98.2004C97.9364 147.84 97.4084 148.65 96.6164 149.262C95.8244 149.862 94.8344 150.162 93.6464 150.162C92.7104 150.162 91.8764 149.952 91.1444 149.532C90.4244 149.112 89.8604 148.518 89.4524 147.75C89.0444 146.982 88.8404 146.082 88.8404 145.05ZM109.134 140.136V150H107.496V148.542C107.184 149.046 106.746 149.442 106.182 149.73C105.63 150.006 105.018 150.144 104.346 150.144C103.578 150.144 102.888 149.988 102.276 149.676C101.664 149.352 101.178 148.872 100.818 148.236C100.47 147.6 100.296 146.826 100.296 145.914V140.136H101.916V145.698C101.916 146.67 102.162 147.42 102.654 147.948C103.146 148.464 103.818 148.722 104.67 148.722C105.546 148.722 106.236 148.452 106.74 147.912C107.244 147.372 107.496 146.586 107.496 145.554V140.136H109.134ZM113.538 141.738C113.826 141.174 114.234 140.736 114.762 140.424C115.302 140.112 115.956 139.956 116.724 139.956V141.648H116.292C114.456 141.648 113.538 142.644 113.538 144.636V150H111.9V140.136H113.538V141.738ZM119.461 138.534C119.149 138.534 118.885 138.426 118.669 138.21C118.453 137.994 118.345 137.73 118.345 137.418C118.345 137.106 118.453 136.842 118.669 136.626C118.885 136.41 119.149 136.302 119.461 136.302C119.761 136.302 120.013 136.41 120.217 136.626C120.433 136.842 120.541 137.106 120.541 137.418C120.541 137.73 120.433 137.994 120.217 138.21C120.013 138.426 119.761 138.534 119.461 138.534ZM120.253 140.136V150H118.615V140.136H120.253ZM125.042 141.486V147.3C125.042 147.78 125.144 148.122 125.348 148.326C125.552 148.518 125.906 148.614 126.41 148.614H127.616V150H126.14C125.228 150 124.544 149.79 124.088 149.37C123.632 148.95 123.404 148.26 123.404 147.3V141.486H122.126V140.136H123.404V137.652H125.042V140.136H127.616V141.486H125.042ZM138.097 140.136L132.157 154.644H130.465L132.409 149.892L128.431 140.136H130.249L133.345 148.128L136.405 140.136H138.097Z" fill="#263238"/>
</svg>
