<svg width="131" height="157" viewBox="0 0 131 157" fill="none" xmlns="http://www.w3.org/2000/svg">
<path d="M65.5 2.5C51.7162 2.5 40.5 12.3613 40.5 24.4825C40.5 30.895 44.71 37.4975 48.7763 43.8775C52.28 49.3688 55.6263 54.61 56.6712 60H74.3275C75.375 54.6087 78.7175 49.3675 82.22 43.8775C86.2887 37.4975 90.5 30.895 90.5 24.4825C90.5 12.3613 79.2838 2.5 65.5 2.5ZM65.5 37.0925C67.915 39.6987 70.19 40.4738 71.23 40.7038C71.0737 41.3975 70.9325 42.075 70.7687 42.7425C70.4613 44.1075 70.1612 45.4375 69.87 46.715C69.0585 50.3056 68.2689 53.901 67.5013 57.5013H63.4975C62.7281 53.9014 61.9385 50.306 61.1287 46.715L60.2275 42.7425C60.0637 42.075 59.9225 41.3975 59.7688 40.7038C60.81 40.4738 63.085 39.6987 65.5 37.0925ZM64.8263 34.3637C64.5875 33.8475 64.5012 33.32 64.7463 32.9312C64.9513 32.6225 65.2225 32.4463 65.5012 32.4463C65.78 32.4463 66.0487 32.6225 66.2562 32.9312C66.5 33.32 66.415 33.8462 66.1763 34.3637C66 34.7287 65.7588 35.0762 65.5 35.4125C65.2386 35.088 65.0127 34.7364 64.8263 34.3637ZM80.1138 42.5312C76.885 47.5925 73.815 52.4038 72.36 57.5H68.3025C69.2021 53.9777 70.0825 50.4506 70.9437 46.9188C71.2512 45.6425 71.5763 44.3213 71.9075 42.9588C72.0925 42.2337 72.2562 41.4863 72.4375 40.7425C73.3825 40.6788 74.2862 40.3838 74.9912 39.7375C75.7137 39.0263 76.09 38.0963 75.9213 37.1038C75.845 36.6287 75.4888 36.0137 74.8013 35.8037C74.465 35.6904 74.1023 35.6821 73.7613 35.78C73.4773 35.8852 73.2214 36.0546 73.0138 36.275C72.3475 37.015 72.105 37.7537 71.8325 38.4862C71.705 38.855 71.6 39.2238 71.5 39.5875C71.5 39.5875 70.4375 39.6688 68.165 38.14C66.9025 37.2912 66.5387 36.6775 66.1725 36.2713C66.5675 35.8325 66.9462 35.3512 67.24 34.7675C67.3962 34.4412 67.5275 34.0875 67.5725 33.69C67.6175 33.2925 67.5437 32.8425 67.3162 32.455C67.0734 32.0254 66.6923 31.6905 66.235 31.505C66.0075 31.4237 65.7537 31.385 65.5 31.385C65.2463 31.385 64.99 31.4225 64.765 31.505C64.3072 31.6908 63.9254 32.0255 63.6812 32.455C63.4538 32.8438 63.3813 33.2925 63.425 33.69C63.4754 34.0654 63.5887 34.4297 63.76 34.7675C64.0525 35.3512 64.4312 35.8338 64.8275 36.2713C64.4613 36.6775 64.095 37.2912 62.8325 38.14C60.56 39.67 59.4975 39.5875 59.4975 39.5875C59.3995 39.2169 59.2894 38.8497 59.1675 38.4862C58.8913 37.7537 58.6525 37.015 57.9862 36.275C57.7788 36.0544 57.5229 35.8849 57.2388 35.78C56.8977 35.6821 56.535 35.6904 56.1987 35.8037C55.5075 36.0137 55.1538 36.6287 55.0788 37.1038C54.9075 38.0963 55.2862 39.0263 56.0087 39.7375C56.7162 40.3838 57.6175 40.6788 58.5625 40.7425C58.7413 41.4875 58.9038 42.2337 59.0925 42.9588L60.0563 46.9188C60.9182 50.4504 61.7986 53.9775 62.6975 57.5H58.64C57.1875 52.4087 54.1162 47.5975 50.8787 42.5262C47.005 36.4475 43 30.1625 43 24.4825C43 13.74 53.0925 5 65.5 5C77.9062 5 88 13.74 88 24.4825C88 30.165 83.9913 36.4513 80.1138 42.5312ZM72.7487 39.58C72.8225 39.3237 72.8975 39.0638 72.985 38.8138C73.2212 38.155 73.5225 37.4388 73.9325 37.01C74.03 36.9 74.13 36.8563 74.1813 36.8275C74.1813 36.8325 74.3037 36.8125 74.3812 36.8512C74.52 36.8862 74.6525 37.03 74.7038 37.3062C74.8037 37.8412 74.55 38.53 74.0913 38.9613C73.7688 39.2675 73.2712 39.4825 72.7487 39.58ZM58.2487 39.58C57.7262 39.4825 57.2288 39.2675 56.9088 38.96C56.4475 38.5287 56.1962 37.84 56.2962 37.305C56.3475 37.0275 56.4788 36.885 56.6188 36.85C56.6975 36.8125 56.8188 36.8312 56.8188 36.8263C56.8675 36.855 56.97 36.9 57.0625 37.0088C57.475 37.4388 57.775 38.1537 58.0125 38.8125C58.1 39.0637 58.1762 39.3237 58.2487 39.58ZM58.65 61.9463H57.4V66.4463H58.36V70.4475H59.32V74.4487H60.9275C61.6837 76.235 63.4338 77.5 65.5 77.5C67.565 77.5 69.3138 76.235 70.0725 74.4463H71.7313V70.42L71.8713 70.3687L72.69 70.0687V66.415L72.7713 66.3887L73.6475 66.1137V61.945H58.65V61.9463Z" fill="#0E204E"/>
<path d="M0.918 148.686C2.442 147.462 3.636 146.46 4.5 145.68C5.364 144.888 6.09 144.066 6.678 143.214C7.278 142.35 7.578 141.504 7.578 140.676C7.578 139.896 7.386 139.284 7.002 138.84C6.63 138.384 6.024 138.156 5.184 138.156C4.368 138.156 3.732 138.414 3.276 138.93C2.832 139.434 2.592 140.112 2.556 140.964H0.972C1.02 139.62 1.428 138.582 2.196 137.85C2.964 137.118 3.954 136.752 5.166 136.752C6.402 136.752 7.38 137.094 8.1 137.778C8.832 138.462 9.198 139.404 9.198 140.604C9.198 141.6 8.898 142.572 8.298 143.52C7.71 144.456 7.038 145.284 6.282 146.004C5.526 146.712 4.56 147.54 3.384 148.488H9.576V149.856H0.918V148.686ZM11.0735 147.102V145.86L17.3915 137.112H19.3535V145.68H21.1535V147.102H19.3535V150H17.7335V147.102H11.0735ZM17.8055 138.822L12.9635 145.68H17.8055V138.822ZM29.1798 133.044L24.2478 153.06H22.6278L27.5418 133.044H29.1798ZM39.3604 138.264L34.3564 150H32.7004L37.7764 138.426H30.8284V137.022H39.3604V138.264ZM47.8834 138.786V142.98H52.4554V144.33H47.8834V148.65H52.9954V150H46.2454V137.436H52.9954V138.786H47.8834ZM57.1119 136.68V150H55.4739V136.68H57.1119ZM68.9036 144.69C68.9036 145.002 68.8856 145.332 68.8496 145.68H60.9656C61.0256 146.652 61.3556 147.414 61.9556 147.966C62.5676 148.506 63.3056 148.776 64.1696 148.776C64.8776 148.776 65.4656 148.614 65.9336 148.29C66.4136 147.954 66.7496 147.51 66.9416 146.958H68.7056C68.4416 147.906 67.9136 148.68 67.1216 149.28C66.3296 149.868 65.3456 150.162 64.1696 150.162C63.2336 150.162 62.3936 149.952 61.6496 149.532C60.9176 149.112 60.3416 148.518 59.9216 147.75C59.5016 146.97 59.2916 146.07 59.2916 145.05C59.2916 144.03 59.4956 143.136 59.9036 142.368C60.3116 141.6 60.8816 141.012 61.6136 140.604C62.3576 140.184 63.2096 139.974 64.1696 139.974C65.1056 139.974 65.9336 140.178 66.6536 140.586C67.3736 140.994 67.9256 141.558 68.3096 142.278C68.7056 142.986 68.9036 143.79 68.9036 144.69ZM67.2116 144.348C67.2116 143.724 67.0736 143.19 66.7976 142.746C66.5216 142.29 66.1436 141.948 65.6636 141.72C65.1956 141.48 64.6736 141.36 64.0976 141.36C63.2696 141.36 62.5616 141.624 61.9736 142.152C61.3976 142.68 61.0676 143.412 60.9836 144.348H67.2116ZM70.4537 145.05C70.4537 144.03 70.6577 143.142 71.0657 142.386C71.4737 141.618 72.0377 141.024 72.7577 140.604C73.4897 140.184 74.3237 139.974 75.2597 139.974C76.4717 139.974 77.4677 140.268 78.2477 140.856C79.0397 141.444 79.5617 142.26 79.8137 143.304H78.0497C77.8817 142.704 77.5517 142.23 77.0597 141.882C76.5797 141.534 75.9797 141.36 75.2597 141.36C74.3237 141.36 73.5677 141.684 72.9917 142.332C72.4157 142.968 72.1277 143.874 72.1277 145.05C72.1277 146.238 72.4157 147.156 72.9917 147.804C73.5677 148.452 74.3237 148.776 75.2597 148.776C75.9797 148.776 76.5797 148.608 77.0597 148.272C77.5397 147.936 77.8697 147.456 78.0497 146.832H79.8137C79.5497 147.84 79.0217 148.65 78.2297 149.262C77.4377 149.862 76.4477 150.162 75.2597 150.162C74.3237 150.162 73.4897 149.952 72.7577 149.532C72.0377 149.112 71.4737 148.518 71.0657 147.75C70.6577 146.982 70.4537 146.082 70.4537 145.05ZM83.9973 141.486V147.3C83.9973 147.78 84.0993 148.122 84.3033 148.326C84.5073 148.518 84.8613 148.614 85.3653 148.614H86.5713V150H85.0953C84.1833 150 83.4993 149.79 83.0433 149.37C82.5873 148.95 82.3593 148.26 82.3593 147.3V141.486H81.0813V140.136H82.3593V137.652H83.9973V140.136H86.5713V141.486H83.9973ZM90.1939 141.738C90.4819 141.174 90.8899 140.736 91.4179 140.424C91.9579 140.112 92.6119 139.956 93.3799 139.956V141.648H92.9479C91.1119 141.648 90.1939 142.644 90.1939 144.636V150H88.5559V140.136H90.1939V141.738ZM96.1168 138.534C95.8048 138.534 95.5408 138.426 95.3248 138.21C95.1088 137.994 95.0008 137.73 95.0008 137.418C95.0008 137.106 95.1088 136.842 95.3248 136.626C95.5408 136.41 95.8048 136.302 96.1168 136.302C96.4168 136.302 96.6688 136.41 96.8728 136.626C97.0888 136.842 97.1968 137.106 97.1968 137.418C97.1968 137.73 97.0888 137.994 96.8728 138.21C96.6688 138.426 96.4168 138.534 96.1168 138.534ZM96.9088 140.136V150H95.2708V140.136H96.9088ZM99.0885 145.05C99.0885 144.03 99.2925 143.142 99.7005 142.386C100.108 141.618 100.672 141.024 101.392 140.604C102.124 140.184 102.958 139.974 103.894 139.974C105.106 139.974 106.102 140.268 106.882 140.856C107.674 141.444 108.196 142.26 108.448 143.304H106.684C106.516 142.704 106.186 142.23 105.694 141.882C105.214 141.534 104.614 141.36 103.894 141.36C102.958 141.36 102.202 141.684 101.626 142.332C101.05 142.968 100.762 143.874 100.762 145.05C100.762 146.238 101.05 147.156 101.626 147.804C102.202 148.452 102.958 148.776 103.894 148.776C104.614 148.776 105.214 148.608 105.694 148.272C106.174 147.936 106.504 147.456 106.684 146.832H108.448C108.184 147.84 107.656 148.65 106.864 149.262C106.072 149.862 105.082 150.162 103.894 150.162C102.958 150.162 102.124 149.952 101.392 149.532C100.672 149.112 100.108 148.518 99.7005 147.75C99.2925 146.982 99.0885 146.082 99.0885 145.05ZM111.48 138.534C111.168 138.534 110.904 138.426 110.688 138.21C110.472 137.994 110.364 137.73 110.364 137.418C110.364 137.106 110.472 136.842 110.688 136.626C110.904 136.41 111.168 136.302 111.48 136.302C111.78 136.302 112.032 136.41 112.236 136.626C112.452 136.842 112.56 137.106 112.56 137.418C112.56 137.73 112.452 137.994 112.236 138.21C112.032 138.426 111.78 138.534 111.48 138.534ZM112.272 140.136V150H110.634V140.136H112.272ZM117.062 141.486V147.3C117.062 147.78 117.164 148.122 117.368 148.326C117.572 148.518 117.926 148.614 118.43 148.614H119.636V150H118.16C117.248 150 116.564 149.79 116.108 149.37C115.652 148.95 115.424 148.26 115.424 147.3V141.486H114.146V140.136H115.424V137.652H117.062V140.136H119.636V141.486H117.062ZM130.116 140.136L124.176 154.644H122.484L124.428 149.892L120.45 140.136H122.268L125.364 148.128L128.424 140.136H130.116Z" fill="#263238"/>
</svg>
